<svg width="15" height="15" viewBox="0 0 15 15" fill="none" xmlns="http://www.w3.org/2000/svg">
<path fill-rule="evenodd" clip-rule="evenodd" d="M8.75001 1.875V3.75H7.50001V1.875H6.25001V4.375H5.00001V1.875H3.75001V5.625H11.25V1.875H8.75001ZM2.50001 5.625V0.624998H12.5V5.625L12.5 6.25001C12.5 7.1875 12.5 7.1875 12.5 8.1214C12.5055 9.0728 11.9746 9.37394 10.4946 9.81745C9.62712 10.0774 9.37501 10.2202 9.37501 10.3125C9.37501 10.7923 9.41893 11.1144 9.51259 11.489C9.49448 11.4166 9.60123 11.8294 9.6248 11.9394C9.66626 12.1328 9.68751 12.3089 9.68751 12.5C9.68751 13.538 8.71105 14.375 7.50001 14.375C6.28896 14.375 5.31251 13.538 5.31251 12.5C5.31251 12.3089 5.33376 12.1328 5.37521 11.9394C5.39878 11.8294 5.50553 11.4166 5.48742 11.489C5.58108 11.1144 5.62501 10.7923 5.62501 10.3125C5.62501 10.2196 5.37358 10.0771 4.50791 9.81739C3.02983 9.37396 2.50001 9.07373 2.50001 8.125V5.625ZM3.75001 6.875V8.125C3.75001 8.21793 4.00144 8.36041 4.8671 8.62011C6.34519 9.06353 6.87501 9.36376 6.87501 10.3125C6.87501 10.9005 6.81737 11.3231 6.70009 11.7922C6.71128 11.7475 6.61458 12.1214 6.59746 12.2013C6.57338 12.3136 6.56251 12.4037 6.56251 12.5C6.56251 12.8012 6.94022 13.125 7.50001 13.125C8.05979 13.125 8.43751 12.8012 8.43751 12.5C8.43751 12.4037 8.42663 12.3136 8.40255 12.2013C8.38543 12.1214 8.28873 11.7475 8.29992 11.7922C8.18264 11.3231 8.12501 10.9005 8.12501 10.3125C8.12501 9.36418 8.65582 9.06353 10.1331 8.62085L10.1358 8.62005C11.0003 8.361 11.2505 8.21903 11.25 8.125C11.25 7.45947 11.25 7.2664 11.25 6.875H3.75001Z" fill="white"/>
</svg>
